<svg xmlns="http://www.w3.org/2000/svg" xmlns:xlink="http://www.w3.org/1999/xlink" width="180" zoomAndPan="magnify" viewBox="0 0 135 44.999999" height="60" preserveAspectRatio="xMidYMid meet" version="1.0"><defs><clipPath id="31362df9d9"><path d="M 103.746094 12.25 L 123.246094 12.25 L 123.246094 28.75 L 103.746094 28.75 Z M 103.746094 12.25 " clip-rule="nonzero"/></clipPath><clipPath id="fc55df732d"><path d="M 120.617188 15.859375 L 122.253906 15.859375 L 122.253906 19.621094 L 120.617188 19.621094 Z M 120.617188 15.859375 " clip-rule="nonzero"/></clipPath><clipPath id="63144d376d"><path d="M 120.617188 15.875 C 120.601562 15.925781 120.886719 16 121.226562 16.28125 C 121.394531 16.417969 121.574219 16.609375 121.707031 16.863281 C 121.777344 16.984375 121.835938 17.125 121.871094 17.273438 C 121.910156 17.421875 121.9375 17.578125 121.933594 17.742188 C 121.933594 17.902344 121.914062 18.058594 121.875 18.207031 C 121.832031 18.355469 121.777344 18.492188 121.710938 18.621094 C 121.574219 18.867188 121.398438 19.0625 121.226562 19.203125 C 120.886719 19.480469 120.601562 19.554688 120.617188 19.605469 C 120.621094 19.625 120.695312 19.628906 120.828125 19.601562 C 120.960938 19.578125 121.148438 19.511719 121.359375 19.378906 C 121.566406 19.25 121.785156 19.042969 121.960938 18.765625 C 122.042969 18.621094 122.117188 18.464844 122.167969 18.292969 C 122.21875 18.117188 122.246094 17.933594 122.246094 17.742188 C 122.25 17.546875 122.214844 17.363281 122.167969 17.191406 C 122.117188 17.015625 122.042969 16.859375 121.957031 16.71875 C 121.789062 16.433594 121.5625 16.230469 121.355469 16.101562 C 121.148438 15.96875 120.960938 15.902344 120.828125 15.878906 C 120.695312 15.851562 120.621094 15.855469 120.617188 15.875 Z M 120.617188 15.875 " clip-rule="nonzero"/></clipPath><clipPath id="5c6dbc02f7"><path d="M 0.617188 0.859375 L 2.253906 0.859375 L 2.253906 4.621094 L 0.617188 4.621094 Z M 0.617188 0.859375 " clip-rule="nonzero"/></clipPath><clipPath id="9697743511"><path d="M 0.617188 0.875 C 0.601562 0.925781 0.886719 1 1.226562 1.28125 C 1.394531 1.417969 1.574219 1.609375 1.707031 1.863281 C 1.777344 1.984375 1.835938 2.125 1.871094 2.273438 C 1.910156 2.421875 1.9375 2.578125 1.933594 2.742188 C 1.933594 2.902344 1.914062 3.058594 1.875 3.207031 C 1.832031 3.355469 1.777344 3.492188 1.710938 3.621094 C 1.574219 3.867188 1.398438 4.0625 1.226562 4.203125 C 0.886719 4.480469 0.601562 4.554688 0.617188 4.605469 C 0.621094 4.625 0.695312 4.628906 0.828125 4.601562 C 0.960938 4.578125 1.148438 4.511719 1.359375 4.378906 C 1.566406 4.25 1.785156 4.042969 1.960938 3.765625 C 2.042969 3.621094 2.117188 3.464844 2.167969 3.292969 C 2.21875 3.117188 2.246094 2.933594 2.246094 2.742188 C 2.25 2.546875 2.214844 2.363281 2.167969 2.191406 C 2.117188 2.015625 2.042969 1.859375 1.957031 1.71875 C 1.789062 1.433594 1.5625 1.230469 1.355469 1.101562 C 1.148438 0.96875 0.960938 0.902344 0.828125 0.878906 C 0.695312 0.851562 0.621094 0.855469 0.617188 0.875 Z M 0.617188 0.875 " clip-rule="nonzero"/></clipPath><clipPath id="49840ee34e"><rect x="0" width="3" y="0" height="5"/></clipPath><clipPath id="a6bd61af20"><path d="M 104.554688 15.859375 L 106.191406 15.859375 L 106.191406 19.621094 L 104.554688 19.621094 Z M 104.554688 15.859375 " clip-rule="nonzero"/></clipPath><clipPath id="f41dedfdbd"><path d="M 106.191406 15.875 C 106.183594 15.855469 106.109375 15.851562 105.976562 15.878906 C 105.84375 15.902344 105.65625 15.96875 105.449219 16.101562 C 105.242188 16.230469 105.019531 16.433594 104.847656 16.71875 C 104.761719 16.859375 104.6875 17.015625 104.640625 17.191406 C 104.589844 17.363281 104.558594 17.546875 104.558594 17.742188 C 104.5625 17.933594 104.589844 18.117188 104.636719 18.292969 C 104.691406 18.464844 104.761719 18.621094 104.847656 18.765625 C 105.023438 19.042969 105.242188 19.25 105.449219 19.378906 C 105.65625 19.511719 105.84375 19.578125 105.976562 19.601562 C 106.109375 19.628906 106.183594 19.625 106.191406 19.605469 C 106.203125 19.554688 105.921875 19.480469 105.578125 19.203125 C 105.410156 19.0625 105.234375 18.867188 105.097656 18.621094 C 105.03125 18.492188 104.972656 18.355469 104.933594 18.207031 C 104.894531 18.058594 104.875 17.902344 104.871094 17.742188 C 104.871094 17.578125 104.894531 17.421875 104.933594 17.273438 C 104.972656 17.125 105.03125 16.984375 105.097656 16.863281 C 105.230469 16.609375 105.410156 16.417969 105.578125 16.28125 C 105.921875 16 106.203125 15.925781 106.191406 15.875 Z M 106.191406 15.875 " clip-rule="nonzero"/></clipPath><clipPath id="646d38c2db"><path d="M 0.554688 0.859375 L 2.191406 0.859375 L 2.191406 4.621094 L 0.554688 4.621094 Z M 0.554688 0.859375 " clip-rule="nonzero"/></clipPath><clipPath id="4dd6fa2c54"><path d="M 2.191406 0.875 C 2.183594 0.855469 2.109375 0.851562 1.976562 0.878906 C 1.84375 0.902344 1.65625 0.96875 1.449219 1.101562 C 1.242188 1.230469 1.019531 1.433594 0.847656 1.71875 C 0.761719 1.859375 0.6875 2.015625 0.640625 2.191406 C 0.589844 2.363281 0.558594 2.546875 0.558594 2.742188 C 0.5625 2.933594 0.589844 3.117188 0.636719 3.292969 C 0.691406 3.464844 0.761719 3.621094 0.847656 3.765625 C 1.023438 4.042969 1.242188 4.25 1.449219 4.378906 C 1.65625 4.511719 1.84375 4.578125 1.976562 4.601562 C 2.109375 4.628906 2.183594 4.625 2.191406 4.605469 C 2.203125 4.554688 1.921875 4.480469 1.578125 4.203125 C 1.410156 4.0625 1.234375 3.867188 1.097656 3.621094 C 1.03125 3.492188 0.972656 3.355469 0.933594 3.207031 C 0.894531 3.058594 0.875 2.902344 0.871094 2.742188 C 0.871094 2.578125 0.894531 2.421875 0.933594 2.273438 C 0.972656 2.125 1.03125 1.984375 1.097656 1.863281 C 1.230469 1.609375 1.410156 1.417969 1.578125 1.28125 C 1.921875 1 2.203125 0.925781 2.191406 0.875 Z M 2.191406 0.875 " clip-rule="nonzero"/></clipPath><clipPath id="adf897e501"><rect x="0" width="3" y="0" height="5"/></clipPath><clipPath id="9d9a9522a6"><path d="M 111.023438 9.089844 L 112.96875 9.089844 L 112.96875 12.015625 L 111.023438 12.015625 Z M 111.023438 9.089844 " clip-rule="nonzero"/></clipPath><clipPath id="bda949af02"><path d="M 112.933594 12.007812 C 112.949219 12.003906 112.953125 11.902344 112.941406 11.726562 C 112.9375 11.679688 112.933594 11.632812 112.929688 11.578125 C 112.929688 11.527344 112.921875 11.460938 112.910156 11.398438 C 112.886719 11.269531 112.851562 11.125 112.792969 10.96875 C 112.734375 10.8125 112.65625 10.648438 112.539062 10.484375 C 112.425781 10.320312 112.273438 10.164062 112.078125 10.042969 C 111.886719 9.917969 111.664062 9.851562 111.515625 9.730469 C 111.441406 9.667969 111.386719 9.585938 111.339844 9.492188 C 111.316406 9.445312 111.296875 9.390625 111.285156 9.347656 L 111.292969 9.351562 L 111.308594 9.355469 L 111.347656 9.367188 C 111.394531 9.382812 111.445312 9.40625 111.492188 9.433594 C 111.589844 9.484375 111.683594 9.542969 111.773438 9.609375 C 111.949219 9.738281 112.101562 9.886719 112.226562 10.042969 C 112.351562 10.203125 112.445312 10.371094 112.523438 10.535156 C 112.601562 10.699219 112.65625 10.859375 112.707031 11.007812 C 112.792969 11.308594 112.839844 11.5625 112.871094 11.734375 C 112.902344 11.910156 112.914062 12.007812 112.933594 12.007812 C 112.949219 12.007812 112.96875 11.910156 112.96875 11.726562 C 112.96875 11.546875 112.945312 11.28125 112.875 10.964844 C 112.835938 10.804688 112.789062 10.628906 112.714844 10.449219 C 112.636719 10.269531 112.539062 10.085938 112.410156 9.90625 C 112.277344 9.726562 112.109375 9.558594 111.917969 9.414062 C 111.824219 9.339844 111.722656 9.273438 111.609375 9.210938 C 111.550781 9.183594 111.492188 9.15625 111.429688 9.132812 C 111.410156 9.125 111.394531 9.121094 111.378906 9.117188 L 111.351562 9.109375 L 111.3125 9.101562 C 111.253906 9.09375 111.195312 9.09375 111.144531 9.117188 C 111.09375 9.136719 111.054688 9.183594 111.039062 9.234375 C 111.023438 9.289062 111.03125 9.351562 111.042969 9.40625 C 111.0625 9.480469 111.089844 9.539062 111.117188 9.597656 C 111.175781 9.714844 111.257812 9.832031 111.363281 9.917969 C 111.464844 10 111.578125 10.054688 111.679688 10.101562 C 111.78125 10.148438 111.875 10.1875 111.960938 10.238281 C 112.300781 10.4375 112.503906 10.757812 112.632812 11.035156 C 112.695312 11.175781 112.742188 11.308594 112.773438 11.425781 C 112.808594 11.542969 112.824219 11.652344 112.847656 11.742188 C 112.886719 11.917969 112.917969 12.011719 112.933594 12.007812 Z M 112.933594 12.007812 " clip-rule="nonzero"/></clipPath><clipPath id="fd123d73b5"><path d="M 0.0234375 0.0898438 L 1.96875 0.0898438 L 1.96875 3.015625 L 0.0234375 3.015625 Z M 0.0234375 0.0898438 " clip-rule="nonzero"/></clipPath><clipPath id="dce36d8229"><path d="M 1.933594 3.007812 C 1.949219 3.003906 1.953125 2.902344 1.941406 2.726562 C 1.9375 2.679688 1.933594 2.632812 1.929688 2.578125 C 1.929688 2.527344 1.921875 2.460938 1.910156 2.398438 C 1.886719 2.269531 1.851562 2.125 1.792969 1.96875 C 1.734375 1.8125 1.65625 1.648438 1.539062 1.484375 C 1.425781 1.320312 1.273438 1.164062 1.078125 1.042969 C 0.886719 0.917969 0.664062 0.851562 0.515625 0.730469 C 0.441406 0.667969 0.386719 0.585938 0.339844 0.492188 C 0.316406 0.445312 0.296875 0.390625 0.285156 0.347656 L 0.292969 0.351562 L 0.308594 0.355469 L 0.347656 0.367188 C 0.394531 0.382812 0.445312 0.40625 0.492188 0.433594 C 0.589844 0.484375 0.683594 0.542969 0.773438 0.609375 C 0.949219 0.738281 1.101562 0.886719 1.226562 1.042969 C 1.351562 1.203125 1.445312 1.371094 1.523438 1.535156 C 1.601562 1.699219 1.65625 1.859375 1.707031 2.007812 C 1.792969 2.308594 1.839844 2.5625 1.871094 2.734375 C 1.902344 2.910156 1.914062 3.007812 1.933594 3.007812 C 1.949219 3.007812 1.96875 2.910156 1.96875 2.726562 C 1.96875 2.546875 1.945312 2.28125 1.875 1.964844 C 1.835938 1.804688 1.789062 1.628906 1.714844 1.449219 C 1.636719 1.269531 1.539062 1.085938 1.410156 0.90625 C 1.277344 0.726562 1.109375 0.558594 0.917969 0.414062 C 0.824219 0.339844 0.722656 0.273438 0.609375 0.210938 C 0.550781 0.183594 0.492188 0.15625 0.429688 0.132812 C 0.410156 0.125 0.394531 0.121094 0.378906 0.117188 L 0.351562 0.109375 L 0.3125 0.101562 C 0.253906 0.09375 0.195312 0.09375 0.144531 0.117188 C 0.09375 0.136719 0.0546875 0.183594 0.0390625 0.234375 C 0.0234375 0.289062 0.03125 0.351562 0.0429688 0.40625 C 0.0625 0.480469 0.0898438 0.539062 0.117188 0.597656 C 0.175781 0.714844 0.257812 0.832031 0.363281 0.917969 C 0.464844 1 0.578125 1.054688 0.679688 1.101562 C 0.78125 1.148438 0.875 1.1875 0.960938 1.238281 C 1.300781 1.4375 1.503906 1.757812 1.632812 2.035156 C 1.695312 2.175781 1.742188 2.308594 1.773438 2.425781 C 1.808594 2.542969 1.824219 2.652344 1.847656 2.742188 C 1.886719 2.917969 1.917969 3.011719 1.933594 3.007812 Z M 1.933594 3.007812 " clip-rule="nonzero"/></clipPath><clipPath id="b3b07ddf00"><rect x="0" width="2" y="0" height="4"/></clipPath><clipPath id="4cabaf2d55"><path d="M 114.074219 9.089844 L 116.011719 9.089844 L 116.011719 12.015625 L 114.074219 12.015625 Z M 114.074219 9.089844 " clip-rule="nonzero"/></clipPath><clipPath id="7d8dc4bd85"><path d="M 114.109375 12.007812 C 114.125 12.011719 114.15625 11.917969 114.195312 11.742188 C 114.21875 11.652344 114.234375 11.542969 114.265625 11.425781 C 114.300781 11.308594 114.347656 11.175781 114.410156 11.035156 C 114.539062 10.757812 114.742188 10.4375 115.082031 10.238281 C 115.164062 10.1875 115.257812 10.148438 115.359375 10.101562 C 115.460938 10.054688 115.574219 10 115.679688 9.917969 C 115.785156 9.832031 115.867188 9.714844 115.925781 9.597656 C 115.953125 9.539062 115.976562 9.480469 115.996094 9.40625 C 116.007812 9.351562 116.019531 9.289062 116 9.234375 C 115.984375 9.183594 115.945312 9.136719 115.898438 9.117188 C 115.847656 9.09375 115.785156 9.09375 115.726562 9.101562 L 115.691406 9.109375 L 115.664062 9.117188 C 115.644531 9.121094 115.628906 9.125 115.613281 9.132812 C 115.546875 9.15625 115.488281 9.183594 115.433594 9.210938 C 115.320312 9.273438 115.21875 9.339844 115.121094 9.414062 C 114.929688 9.558594 114.765625 9.726562 114.632812 9.90625 C 114.5 10.085938 114.402344 10.269531 114.328125 10.449219 C 114.253906 10.628906 114.203125 10.804688 114.164062 10.964844 C 114.09375 11.28125 114.074219 11.546875 114.074219 11.726562 C 114.074219 11.910156 114.089844 12.007812 114.109375 12.007812 C 114.125 12.007812 114.140625 11.910156 114.171875 11.734375 C 114.199219 11.5625 114.246094 11.308594 114.335938 11.007812 C 114.382812 10.859375 114.4375 10.699219 114.515625 10.535156 C 114.59375 10.371094 114.691406 10.203125 114.8125 10.042969 C 114.9375 9.886719 115.09375 9.738281 115.269531 9.609375 C 115.355469 9.542969 115.449219 9.484375 115.546875 9.433594 C 115.597656 9.40625 115.644531 9.382812 115.695312 9.367188 L 115.730469 9.355469 L 115.75 9.351562 L 115.757812 9.347656 L 115.753906 9.347656 C 115.746094 9.390625 115.722656 9.445312 115.703125 9.492188 C 115.652344 9.585938 115.597656 9.667969 115.523438 9.730469 C 115.378906 9.851562 115.152344 9.917969 114.960938 10.042969 C 114.769531 10.164062 114.613281 10.320312 114.5 10.484375 C 114.386719 10.648438 114.304688 10.8125 114.246094 10.96875 C 114.191406 11.125 114.152344 11.269531 114.132812 11.398438 C 114.121094 11.460938 114.113281 11.527344 114.109375 11.578125 C 114.105469 11.632812 114.101562 11.679688 114.101562 11.726562 C 114.089844 11.902344 114.09375 12.003906 114.109375 12.007812 Z M 114.109375 12.007812 " clip-rule="nonzero"/></clipPath><clipPath id="896ed76cb9"><path d="M 0.0742188 0.0898438 L 2.011719 0.0898438 L 2.011719 3.015625 L 0.0742188 3.015625 Z M 0.0742188 0.0898438 " clip-rule="nonzero"/></clipPath><clipPath id="6a494aa7e6"><path d="M 0.109375 3.007812 C 0.125 3.011719 0.15625 2.917969 0.195312 2.742188 C 0.21875 2.652344 0.234375 2.542969 0.265625 2.425781 C 0.300781 2.308594 0.347656 2.175781 0.410156 2.035156 C 0.539062 1.757812 0.742188 1.4375 1.082031 1.238281 C 1.164062 1.1875 1.257812 1.148438 1.359375 1.101562 C 1.460938 1.054688 1.574219 1 1.679688 0.917969 C 1.785156 0.832031 1.867188 0.714844 1.925781 0.597656 C 1.953125 0.539062 1.976562 0.480469 1.996094 0.40625 C 2.007812 0.351562 2.019531 0.289062 2 0.234375 C 1.984375 0.183594 1.945312 0.136719 1.898438 0.117188 C 1.847656 0.09375 1.785156 0.09375 1.726562 0.101562 L 1.691406 0.109375 L 1.664062 0.117188 C 1.644531 0.121094 1.628906 0.125 1.613281 0.132812 C 1.546875 0.15625 1.488281 0.183594 1.433594 0.210938 C 1.320312 0.273438 1.21875 0.339844 1.121094 0.414062 C 0.929688 0.558594 0.765625 0.726562 0.632812 0.90625 C 0.5 1.085938 0.402344 1.269531 0.328125 1.449219 C 0.253906 1.628906 0.203125 1.804688 0.164062 1.964844 C 0.09375 2.28125 0.0742188 2.546875 0.0742188 2.726562 C 0.0742188 2.910156 0.0898438 3.007812 0.109375 3.007812 C 0.125 3.007812 0.140625 2.910156 0.171875 2.734375 C 0.199219 2.5625 0.246094 2.308594 0.335938 2.007812 C 0.382812 1.859375 0.4375 1.699219 0.515625 1.535156 C 0.59375 1.371094 0.691406 1.203125 0.8125 1.042969 C 0.9375 0.886719 1.09375 0.738281 1.269531 0.609375 C 1.355469 0.542969 1.449219 0.484375 1.546875 0.433594 C 1.597656 0.40625 1.644531 0.382812 1.695312 0.367188 L 1.730469 0.355469 L 1.75 0.351562 L 1.757812 0.347656 L 1.753906 0.347656 C 1.746094 0.390625 1.722656 0.445312 1.703125 0.492188 C 1.652344 0.585938 1.597656 0.667969 1.523438 0.730469 C 1.378906 0.851562 1.152344 0.917969 0.960938 1.042969 C 0.769531 1.164062 0.613281 1.320312 0.5 1.484375 C 0.386719 1.648438 0.304688 1.8125 0.246094 1.96875 C 0.191406 2.125 0.152344 2.269531 0.132812 2.398438 C 0.121094 2.460938 0.113281 2.527344 0.109375 2.578125 C 0.105469 2.632812 0.101562 2.679688 0.101562 2.726562 C 0.0898438 2.902344 0.09375 3.003906 0.109375 3.007812 Z M 0.109375 3.007812 " clip-rule="nonzero"/></clipPath><clipPath id="92921e42a6"><rect x="0" width="3" y="0" height="4"/></clipPath><clipPath id="b3fb532e29"><path d="M 104.128906 24.386719 L 113.652344 24.386719 L 113.652344 33.042969 L 104.128906 33.042969 Z M 104.128906 24.386719 " clip-rule="nonzero"/></clipPath><clipPath id="0b49e8b993"><path d="M 113.632812 29.25 C 113.609375 29.238281 113.394531 29.574219 113.03125 30.179688 C 112.847656 30.480469 112.628906 30.851562 112.378906 31.28125 C 112.136719 31.691406 111.867188 32.160156 111.570312 32.671875 C 110.902344 32.675781 110.167969 32.683594 109.382812 32.691406 C 108.597656 32.699219 107.761719 32.710938 106.890625 32.722656 C 106.65625 32.324219 106.417969 31.917969 106.175781 31.507812 C 105.578125 30.503906 105.003906 29.542969 104.472656 28.644531 C 104.949219 27.839844 105.398438 27.085938 105.800781 26.40625 C 106.003906 26.054688 106.199219 25.722656 106.382812 25.414062 C 106.472656 25.257812 106.5625 25.105469 106.644531 24.960938 C 106.6875 24.890625 106.726562 24.820312 106.769531 24.75 C 106.789062 24.714844 106.808594 24.679688 106.828125 24.648438 L 106.847656 24.613281 L 106.859375 24.589844 C 107.175781 24.578125 107.460938 24.566406 107.707031 24.554688 C 107.972656 24.542969 108.195312 24.53125 108.378906 24.519531 C 108.746094 24.496094 108.945312 24.476562 108.945312 24.460938 C 108.945312 24.441406 108.746094 24.429688 108.378906 24.417969 C 108.195312 24.414062 107.96875 24.410156 107.707031 24.40625 C 107.574219 24.40625 107.433594 24.40625 107.28125 24.40625 C 107.113281 24.40625 106.9375 24.40625 106.75 24.40625 C 106.417969 24.9375 106.023438 25.570312 105.582031 26.277344 C 105.140625 26.996094 104.652344 27.789062 104.128906 28.644531 C 104.6875 29.589844 105.285156 30.605469 105.90625 31.664062 C 106.183594 32.128906 106.453125 32.585938 106.71875 33.035156 C 107.652344 33.011719 108.546875 32.992188 109.386719 32.976562 C 110.222656 32.953125 111.003906 32.933594 111.714844 32.914062 C 112.023438 32.347656 112.304688 31.832031 112.550781 31.378906 C 112.785156 30.941406 112.988281 30.5625 113.152344 30.246094 C 113.480469 29.621094 113.652344 29.261719 113.632812 29.25 Z M 113.632812 29.25 " clip-rule="nonzero"/></clipPath><clipPath id="a01c36f580"><path d="M 0.128906 0.386719 L 9.652344 0.386719 L 9.652344 9.042969 L 0.128906 9.042969 Z M 0.128906 0.386719 " clip-rule="nonzero"/></clipPath><clipPath id="3cade60ea5"><path d="M 9.632812 5.25 C 9.609375 5.238281 9.394531 5.574219 9.03125 6.179688 C 8.847656 6.480469 8.628906 6.851562 8.378906 7.28125 C 8.136719 7.691406 7.867188 8.160156 7.570312 8.671875 C 6.902344 8.675781 6.167969 8.683594 5.382812 8.691406 C 4.597656 8.699219 3.761719 8.710938 2.890625 8.722656 C 2.65625 8.324219 2.417969 7.917969 2.175781 7.507812 C 1.578125 6.503906 1.003906 5.542969 0.472656 4.644531 C 0.949219 3.839844 1.398438 3.085938 1.800781 2.40625 C 2.003906 2.054688 2.199219 1.722656 2.382812 1.414062 C 2.472656 1.257812 2.5625 1.105469 2.644531 0.960938 C 2.6875 0.890625 2.726562 0.820312 2.769531 0.75 C 2.789062 0.714844 2.808594 0.679688 2.828125 0.648438 L 2.847656 0.613281 L 2.859375 0.589844 C 3.175781 0.578125 3.460938 0.566406 3.707031 0.554688 C 3.972656 0.542969 4.195312 0.53125 4.378906 0.519531 C 4.746094 0.496094 4.945312 0.476562 4.945312 0.460938 C 4.945312 0.441406 4.746094 0.429688 4.378906 0.417969 C 4.195312 0.414062 3.96875 0.410156 3.707031 0.40625 C 3.574219 0.40625 3.433594 0.40625 3.28125 0.40625 C 3.113281 0.40625 2.9375 0.40625 2.75 0.40625 C 2.417969 0.9375 2.023438 1.570312 1.582031 2.277344 C 1.140625 2.996094 0.652344 3.789062 0.128906 4.644531 C 0.6875 5.589844 1.285156 6.605469 1.90625 7.664062 C 2.183594 8.128906 2.453125 8.585938 2.71875 9.035156 C 3.652344 9.011719 4.546875 8.992188 5.386719 8.976562 C 6.222656 8.953125 7.003906 8.933594 7.714844 8.914062 C 8.023438 8.347656 8.304688 7.832031 8.550781 7.378906 C 8.785156 6.941406 8.988281 6.5625 9.152344 6.246094 C 9.480469 5.621094 9.652344 5.261719 9.632812 5.25 Z M 9.632812 5.25 " clip-rule="nonzero"/></clipPath><clipPath id="6e71a5641a"><rect x="0" width="10" y="0" height="10"/></clipPath><clipPath id="86b8567679"><path d="M 116.386719 13.519531 L 129.285156 13.519531 L 129.285156 28 L 116.386719 28 Z M 116.386719 13.519531 " clip-rule="nonzero"/></clipPath><clipPath id="b7eb3d7a75"><path d="M 116.820312 13.671875 C 116.820312 13.6875 117.023438 13.699219 117.402344 13.710938 C 117.785156 13.726562 118.34375 13.738281 119.054688 13.75 C 119.765625 13.757812 120.628906 13.769531 121.617188 13.78125 C 122.585938 13.789062 123.675781 13.796875 124.863281 13.804688 C 125.457031 14.816406 126.097656 15.90625 126.773438 17.058594 C 127.453125 18.207031 128.167969 19.417969 128.90625 20.671875 C 128.839844 20.792969 128.773438 20.910156 128.703125 21.03125 C 128.019531 22.246094 127.351562 23.425781 126.714844 24.554688 C 126.09375 25.660156 125.5 26.714844 124.945312 27.703125 C 124.007812 27.71875 123.125 27.734375 122.304688 27.75 C 121.460938 27.765625 120.683594 27.78125 119.984375 27.792969 C 119.285156 27.808594 118.664062 27.824219 118.132812 27.835938 C 117.867188 27.84375 117.625 27.851562 117.40625 27.859375 C 117.292969 27.863281 117.191406 27.867188 117.09375 27.871094 C 117.003906 27.871094 116.921875 27.875 116.84375 27.878906 C 116.777344 27.777344 116.714844 27.6875 116.664062 27.609375 C 116.605469 27.527344 116.558594 27.457031 116.519531 27.402344 C 116.4375 27.289062 116.394531 27.230469 116.386719 27.234375 C 116.378906 27.242188 116.410156 27.304688 116.476562 27.425781 C 116.511719 27.488281 116.554688 27.5625 116.601562 27.648438 C 116.628906 27.695312 116.65625 27.742188 116.683594 27.792969 C 116.71875 27.847656 116.753906 27.910156 116.792969 27.976562 C 117.140625 27.980469 117.59375 27.984375 118.132812 27.988281 C 118.667969 27.992188 119.289062 27.992188 119.988281 27.996094 C 120.6875 27.992188 121.464844 27.992188 122.308594 27.992188 C 123.175781 27.988281 124.113281 27.984375 125.109375 27.976562 C 125.695312 26.953125 126.320312 25.855469 126.976562 24.703125 C 127.617188 23.578125 128.285156 22.398438 128.976562 21.183594 C 129.074219 21.011719 129.171875 20.839844 129.265625 20.667969 C 128.492188 19.363281 127.742188 18.105469 127.03125 16.90625 C 126.316406 15.714844 125.640625 14.582031 125.015625 13.539062 C 123.773438 13.546875 122.628906 13.554688 121.617188 13.5625 C 120.628906 13.574219 119.765625 13.585938 119.054688 13.59375 C 118.34375 13.605469 117.785156 13.617188 117.402344 13.628906 C 117.023438 13.644531 116.820312 13.65625 116.820312 13.671875 Z M 116.820312 13.671875 " clip-rule="nonzero"/></clipPath><clipPath id="66226d8c98"><path d="M 0.386719 0.519531 L 13.285156 0.519531 L 13.285156 15 L 0.386719 15 Z M 0.386719 0.519531 " clip-rule="nonzero"/></clipPath><clipPath id="b9dd70d36e"><path d="M 0.820312 0.671875 C 0.820312 0.6875 1.023438 0.699219 1.402344 0.710938 C 1.785156 0.726562 2.34375 0.738281 3.054688 0.75 C 3.765625 0.757812 4.628906 0.769531 5.617188 0.78125 C 6.585938 0.789062 7.675781 0.796875 8.863281 0.804688 C 9.457031 1.816406 10.097656 2.90625 10.773438 4.058594 C 11.453125 5.207031 12.167969 6.417969 12.90625 7.671875 C 12.839844 7.792969 12.773438 7.910156 12.703125 8.03125 C 12.019531 9.246094 11.351562 10.425781 10.714844 11.554688 C 10.09375 12.660156 9.5 13.714844 8.945312 14.703125 C 8.007812 14.71875 7.125 14.734375 6.304688 14.75 C 5.460938 14.765625 4.683594 14.78125 3.984375 14.792969 C 3.285156 14.808594 2.664062 14.824219 2.132812 14.835938 C 1.867188 14.84375 1.625 14.851562 1.40625 14.859375 C 1.292969 14.863281 1.191406 14.867188 1.09375 14.871094 C 1.003906 14.871094 0.921875 14.875 0.84375 14.878906 C 0.777344 14.777344 0.714844 14.6875 0.664062 14.609375 C 0.605469 14.527344 0.558594 14.457031 0.519531 14.402344 C 0.4375 14.289062 0.394531 14.230469 0.386719 14.234375 C 0.378906 14.242188 0.410156 14.304688 0.476562 14.425781 C 0.511719 14.488281 0.554688 14.5625 0.601562 14.648438 C 0.628906 14.695312 0.65625 14.742188 0.683594 14.792969 C 0.71875 14.847656 0.753906 14.910156 0.792969 14.976562 C 1.140625 14.980469 1.59375 14.984375 2.132812 14.988281 C 2.667969 14.992188 3.289062 14.992188 3.988281 14.996094 C 4.6875 14.992188 5.464844 14.992188 6.308594 14.992188 C 7.175781 14.988281 8.113281 14.984375 9.109375 14.976562 C 9.695312 13.953125 10.320312 12.855469 10.976562 11.703125 C 11.617188 10.578125 12.285156 9.398438 12.976562 8.183594 C 13.074219 8.011719 13.171875 7.839844 13.265625 7.667969 C 12.492188 6.363281 11.742188 5.105469 11.03125 3.90625 C 10.316406 2.714844 9.640625 1.582031 9.015625 0.539062 C 7.773438 0.546875 6.628906 0.554688 5.617188 0.5625 C 4.628906 0.574219 3.765625 0.585938 3.054688 0.59375 C 2.34375 0.605469 1.785156 0.617188 1.402344 0.628906 C 1.023438 0.644531 0.820312 0.65625 0.820312 0.671875 Z M 0.820312 0.671875 " clip-rule="nonzero"/></clipPath><clipPath id="017fac4558"><rect x="0" width="14" y="0" height="15"/></clipPath><clipPath id="2f797eb824"><path d="M 114.59375 30.519531 L 120.804688 30.519531 L 120.804688 35.902344 L 114.59375 35.902344 Z M 114.59375 30.519531 " clip-rule="nonzero"/></clipPath><clipPath id="b80f357c9e"><path d="M 119.238281 30.539062 L 116.140625 30.539062 L 114.59375 33.222656 L 116.140625 35.902344 L 119.238281 35.902344 L 120.789062 33.222656 Z M 119.238281 30.539062 " clip-rule="nonzero"/></clipPath><clipPath id="be213adbbf"><path d="M 0.59375 0.519531 L 6.804688 0.519531 L 6.804688 5.902344 L 0.59375 5.902344 Z M 0.59375 0.519531 " clip-rule="nonzero"/></clipPath><clipPath id="a1808f543f"><path d="M 5.238281 0.539062 L 2.140625 0.539062 L 0.59375 3.222656 L 2.140625 5.902344 L 5.238281 5.902344 L 6.789062 3.222656 Z M 5.238281 0.539062 " clip-rule="nonzero"/></clipPath><clipPath id="a74b78c122"><rect x="0" width="7" y="0" height="6"/></clipPath><clipPath id="818ae40505"><path d="M 101.710938 21.210938 L 105.503906 21.210938 L 105.503906 24.503906 L 101.710938 24.503906 Z M 101.710938 21.210938 " clip-rule="nonzero"/></clipPath><clipPath id="d87e5a3a6d"><path d="M 104.550781 21.222656 L 102.65625 21.222656 L 101.710938 22.863281 L 102.65625 24.503906 L 104.550781 24.503906 L 105.5 22.863281 Z M 104.550781 21.222656 " clip-rule="nonzero"/></clipPath><clipPath id="d7765cefdb"><path d="M 0.710938 0.210938 L 4.503906 0.210938 L 4.503906 3.503906 L 0.710938 3.503906 Z M 0.710938 0.210938 " clip-rule="nonzero"/></clipPath><clipPath id="5485f756dd"><path d="M 3.550781 0.222656 L 1.65625 0.222656 L 0.710938 1.863281 L 1.65625 3.503906 L 3.550781 3.503906 L 4.5 1.863281 Z M 3.550781 0.222656 " clip-rule="nonzero"/></clipPath><clipPath id="a764ff5b4b"><rect x="0" width="5" y="0" height="4"/></clipPath><clipPath id="9658cc75e5"><path d="M 98.234375 9.351562 L 107.773438 9.351562 L 107.773438 17.988281 L 98.234375 17.988281 Z M 98.234375 9.351562 " clip-rule="nonzero"/></clipPath><clipPath id="cbebb94d46"><path d="M 107.753906 13.136719 C 107.734375 13.148438 107.519531 12.8125 107.152344 12.207031 C 106.972656 11.902344 106.753906 11.53125 106.5 11.105469 C 106.261719 10.691406 105.992188 10.226562 105.695312 9.714844 C 105.027344 9.710938 104.292969 9.703125 103.503906 9.695312 C 102.722656 9.683594 101.886719 9.675781 101.015625 9.664062 C 100.78125 10.058594 100.542969 10.464844 100.296875 10.878906 C 99.703125 11.882812 99.128906 12.84375 98.59375 13.738281 C 99.074219 14.546875 99.519531 15.300781 99.921875 15.976562 C 100.128906 16.328125 100.324219 16.664062 100.507812 16.972656 C 100.597656 17.128906 100.683594 17.277344 100.769531 17.421875 C 100.8125 17.496094 100.851562 17.566406 100.894531 17.636719 C 100.914062 17.667969 100.933594 17.703125 100.953125 17.738281 L 100.972656 17.773438 L 100.984375 17.792969 C 101.300781 17.808594 101.582031 17.820312 101.832031 17.828125 C 102.09375 17.84375 102.320312 17.855469 102.503906 17.863281 C 102.871094 17.886719 103.070312 17.910156 103.070312 17.925781 C 103.070312 17.945312 102.871094 17.957031 102.503906 17.964844 C 102.320312 17.972656 102.09375 17.976562 101.828125 17.976562 C 101.695312 17.976562 101.554688 17.980469 101.40625 17.980469 C 101.238281 17.980469 101.0625 17.980469 100.875 17.980469 C 100.542969 17.449219 100.148438 16.816406 99.707031 16.109375 C 99.265625 15.390625 98.777344 14.59375 98.253906 13.742188 C 98.808594 12.792969 99.40625 11.777344 100.03125 10.722656 C 100.304688 10.253906 100.578125 9.796875 100.84375 9.351562 C 101.777344 9.371094 102.671875 9.390625 103.511719 9.410156 C 104.347656 9.433594 105.128906 9.453125 105.839844 9.472656 C 106.148438 10.035156 106.425781 10.550781 106.675781 11.007812 C 106.910156 11.445312 107.113281 11.824219 107.277344 12.136719 C 107.601562 12.765625 107.777344 13.125 107.753906 13.136719 Z M 107.753906 13.136719 " clip-rule="nonzero"/></clipPath><clipPath id="a509d93e45"><path d="M 0.234375 0.351562 L 9.761719 0.351562 L 9.761719 8.988281 L 0.234375 8.988281 Z M 0.234375 0.351562 " clip-rule="nonzero"/></clipPath><clipPath id="d72f347c55"><path d="M 9.753906 4.136719 C 9.734375 4.148438 9.519531 3.8125 9.152344 3.207031 C 8.972656 2.902344 8.753906 2.53125 8.5 2.105469 C 8.261719 1.691406 7.992188 1.226562 7.695312 0.714844 C 7.027344 0.710938 6.292969 0.703125 5.503906 0.695312 C 4.722656 0.683594 3.886719 0.675781 3.015625 0.664062 C 2.78125 1.058594 2.542969 1.464844 2.296875 1.878906 C 1.703125 2.882812 1.128906 3.84375 0.59375 4.738281 C 1.074219 5.546875 1.519531 6.300781 1.921875 6.976562 C 2.128906 7.328125 2.324219 7.664062 2.507812 7.972656 C 2.597656 8.128906 2.683594 8.277344 2.769531 8.421875 C 2.8125 8.496094 2.851562 8.566406 2.894531 8.636719 C 2.914062 8.667969 2.933594 8.703125 2.953125 8.738281 L 2.972656 8.773438 L 2.984375 8.792969 C 3.300781 8.808594 3.582031 8.820312 3.832031 8.828125 C 4.09375 8.84375 4.320312 8.855469 4.503906 8.863281 C 4.871094 8.886719 5.070312 8.910156 5.070312 8.925781 C 5.070312 8.945312 4.871094 8.957031 4.503906 8.964844 C 4.320312 8.972656 4.09375 8.976562 3.828125 8.976562 C 3.695312 8.976562 3.554688 8.980469 3.40625 8.980469 C 3.238281 8.980469 3.0625 8.980469 2.875 8.980469 C 2.542969 8.449219 2.148438 7.816406 1.707031 7.109375 C 1.265625 6.390625 0.777344 5.59375 0.253906 4.742188 C 0.808594 3.792969 1.40625 2.777344 2.03125 1.722656 C 2.304688 1.253906 2.578125 0.796875 2.84375 0.351562 C 3.777344 0.371094 4.671875 0.390625 5.511719 0.410156 C 6.347656 0.433594 7.128906 0.453125 7.839844 0.472656 C 8.148438 1.035156 8.425781 1.550781 8.675781 2.007812 C 8.910156 2.445312 9.113281 2.824219 9.277344 3.136719 C 9.601562 3.765625 9.777344 4.125 9.753906 4.136719 Z M 9.753906 4.136719 " clip-rule="nonzero"/></clipPath><clipPath id="8115ed42e8"><rect x="0" width="10" y="0" height="9"/></clipPath><clipPath id="82a3bd3a83"><path d="M 39.441406 13.027344 L 97.191406 13.027344 L 97.191406 27.277344 L 39.441406 27.277344 Z M 39.441406 13.027344 " clip-rule="nonzero"/></clipPath><clipPath id="0bfa062a7d"><path d="M 5.726562 13.027344 L 16.226562 13.027344 L 16.226562 28 L 5.726562 28 Z M 5.726562 13.027344 " clip-rule="nonzero"/></clipPath><clipPath id="a0fcd7ca23"><path d="M 17.046875 17.117188 L 27.546875 17.117188 L 27.546875 27.617188 L 17.046875 27.617188 Z M 17.046875 17.117188 " clip-rule="nonzero"/></clipPath><clipPath id="f56284c40e"><path d="M 27.980469 17.117188 L 38.480469 17.117188 L 38.480469 27.617188 L 27.980469 27.617188 Z M 27.980469 17.117188 " clip-rule="nonzero"/></clipPath><clipPath id="c832f97e40"><path d="M 81.699219 18.683594 L 82.449219 18.683594 L 82.449219 19.433594 L 81.699219 19.433594 Z M 81.699219 18.683594 " clip-rule="nonzero"/></clipPath></defs><g clip-path="url(#31362df9d9)"><path fill="#f69f15" d="M 122.867188 18.214844 C 122.820312 18.394531 122.757812 18.570312 122.671875 18.738281 C 122.585938 18.90625 122.488281 19.066406 122.371094 19.210938 C 122.316406 19.289062 122.253906 19.355469 122.195312 19.425781 C 122.128906 19.492188 122.066406 19.5625 122 19.625 C 121.867188 19.753906 121.722656 19.871094 121.574219 19.976562 C 121.421875 20.082031 121.269531 20.175781 121.109375 20.25 C 120.789062 20.40625 120.445312 20.492188 120.101562 20.539062 C 119.417969 20.625 118.746094 20.527344 118.144531 20.363281 C 117.84375 20.28125 117.558594 20.179688 117.289062 20.070312 C 117.019531 19.957031 116.769531 19.835938 116.53125 19.714844 C 115.589844 19.214844 114.902344 18.675781 114.445312 18.296875 C 113.984375 17.914062 113.746094 17.683594 113.726562 17.703125 C 113.71875 17.710938 113.769531 17.773438 113.875 17.894531 C 113.980469 18.011719 114.140625 18.179688 114.363281 18.386719 C 114.609375 18.613281 114.929688 18.894531 115.328125 19.191406 C 115.328125 19.191406 115.328125 19.191406 115.332031 19.195312 C 115.386719 19.25 115.457031 19.316406 115.539062 19.398438 C 115.617188 19.480469 115.710938 19.578125 115.8125 19.691406 C 115.835938 19.71875 115.863281 19.746094 115.890625 19.773438 C 115.914062 19.804688 115.9375 19.835938 115.964844 19.867188 C 116.019531 19.933594 116.074219 20 116.128906 20.070312 C 116.191406 20.136719 116.242188 20.21875 116.300781 20.296875 C 116.34375 20.363281 116.394531 20.429688 116.441406 20.5 C 116.359375 20.429688 116.070312 20.28125 115.621094 20.132812 C 115.070312 19.953125 114.261719 19.792969 113.363281 19.820312 C 112.464844 19.84375 111.671875 20.046875 111.128906 20.257812 C 110.777344 20.394531 110.53125 20.527344 110.402344 20.609375 C 110.417969 20.585938 110.4375 20.554688 110.453125 20.527344 C 110.515625 20.445312 110.574219 20.359375 110.632812 20.28125 C 110.6875 20.203125 110.742188 20.125 110.804688 20.054688 C 110.863281 19.988281 110.917969 19.921875 110.96875 19.855469 C 110.996094 19.824219 111.023438 19.792969 111.046875 19.761719 C 111.074219 19.734375 111.101562 19.707031 111.125 19.679688 C 111.230469 19.570312 111.320312 19.476562 111.402344 19.390625 C 111.484375 19.3125 111.554688 19.246094 111.613281 19.191406 C 111.640625 19.167969 111.660156 19.144531 111.679688 19.125 C 112.070312 18.835938 112.378906 18.5625 112.621094 18.339844 C 112.839844 18.132812 113.003906 17.964844 113.109375 17.847656 C 113.214844 17.730469 113.265625 17.664062 113.257812 17.65625 C 113.238281 17.640625 113 17.867188 112.539062 18.25 C 112.078125 18.628906 111.394531 19.167969 110.449219 19.667969 C 110.214844 19.789062 109.960938 19.910156 109.695312 20.023438 C 109.425781 20.132812 109.140625 20.234375 108.839844 20.316406 C 108.238281 20.480469 107.566406 20.578125 106.878906 20.496094 C 106.539062 20.449219 106.195312 20.363281 105.875 20.203125 C 105.714844 20.128906 105.558594 20.035156 105.410156 19.929688 C 105.261719 19.824219 105.117188 19.707031 104.984375 19.578125 C 104.914062 19.519531 104.855469 19.449219 104.789062 19.382812 C 104.730469 19.308594 104.664062 19.242188 104.609375 19.164062 C 104.496094 19.019531 104.398438 18.859375 104.3125 18.691406 C 104.226562 18.527344 104.164062 18.347656 104.117188 18.167969 C 104.082031 17.984375 104.046875 17.796875 104.058594 17.609375 C 104.058594 17.421875 104.097656 17.234375 104.140625 17.050781 C 104.195312 16.875 104.261719 16.695312 104.351562 16.53125 C 104.527344 16.199219 104.765625 15.902344 105.035156 15.648438 C 105.167969 15.515625 105.3125 15.402344 105.457031 15.289062 C 105.609375 15.1875 105.761719 15.085938 105.917969 15.003906 C 106.234375 14.839844 106.574219 14.734375 106.914062 14.679688 C 107.59375 14.570312 108.269531 14.644531 108.871094 14.800781 C 109.476562 14.957031 110.015625 15.1875 110.488281 15.433594 C 111.429688 15.933594 112.105469 16.484375 112.558594 16.871094 C 113.007812 17.265625 113.238281 17.503906 113.257812 17.488281 C 113.265625 17.480469 113.214844 17.414062 113.113281 17.292969 C 113.011719 17.171875 112.855469 17 112.640625 16.785156 C 112.238281 16.394531 111.632812 15.855469 110.777344 15.351562 C 110.777344 15.34375 110.777344 15.335938 110.777344 15.328125 C 110.78125 15.285156 110.78125 15.234375 110.792969 15.175781 C 110.820312 14.945312 110.882812 14.613281 111.050781 14.238281 C 111.128906 14.050781 111.25 13.859375 111.386719 13.664062 C 111.539062 13.480469 111.710938 13.289062 111.929688 13.125 C 112.144531 12.960938 112.390625 12.816406 112.664062 12.714844 C 112.941406 12.613281 113.242188 12.558594 113.554688 12.5625 C 113.710938 12.554688 113.863281 12.582031 114.011719 12.601562 C 114.085938 12.617188 114.15625 12.636719 114.230469 12.652344 C 114.304688 12.667969 114.371094 12.699219 114.441406 12.722656 C 114.714844 12.828125 114.96875 12.960938 115.179688 13.132812 C 115.207031 13.152344 115.234375 13.171875 115.261719 13.191406 C 115.285156 13.214844 115.308594 13.238281 115.332031 13.257812 C 115.382812 13.304688 115.433594 13.34375 115.476562 13.390625 C 115.519531 13.4375 115.5625 13.484375 115.605469 13.53125 C 115.625 13.554688 115.648438 13.574219 115.667969 13.597656 C 115.683594 13.625 115.703125 13.648438 115.722656 13.671875 C 115.757812 13.71875 115.792969 13.765625 115.828125 13.8125 C 115.859375 13.863281 115.886719 13.910156 115.917969 13.957031 C 115.945312 14.007812 115.976562 14.050781 116 14.101562 C 116.019531 14.148438 116.042969 14.195312 116.066406 14.242188 C 116.238281 14.613281 116.296875 14.945312 116.328125 15.175781 C 116.332031 15.230469 116.335938 15.277344 116.34375 15.320312 C 115.414062 15.847656 114.765625 16.421875 114.34375 16.832031 C 114.128906 17.042969 113.972656 17.21875 113.871094 17.335938 C 113.769531 17.457031 113.71875 17.527344 113.726562 17.53125 C 113.746094 17.550781 113.976562 17.3125 114.425781 16.917969 C 114.878906 16.53125 115.550781 15.980469 116.496094 15.480469 C 116.96875 15.234375 117.507812 15.003906 118.113281 14.847656 C 118.714844 14.691406 119.386719 14.613281 120.070312 14.722656 C 120.410156 14.777344 120.75 14.886719 121.066406 15.050781 C 121.222656 15.132812 121.375 15.230469 121.523438 15.335938 C 121.671875 15.449219 121.816406 15.5625 121.949219 15.691406 C 122.21875 15.949219 122.457031 16.246094 122.628906 16.578125 C 122.722656 16.742188 122.789062 16.917969 122.84375 17.097656 C 122.886719 17.28125 122.925781 17.464844 122.925781 17.65625 C 122.933594 17.84375 122.902344 18.03125 122.867188 18.214844 M 116.46875 20.535156 C 116.472656 20.539062 116.472656 20.542969 116.476562 20.546875 C 116.699219 20.902344 116.933594 21.320312 117.117188 21.8125 C 117.261719 22.203125 117.375 22.640625 117.421875 23.109375 C 117.242188 23 116.925781 22.84375 116.492188 22.683594 C 116.128906 22.546875 115.683594 22.417969 115.179688 22.320312 C 114.675781 22.222656 114.113281 22.164062 113.515625 22.160156 C 112.921875 22.160156 112.359375 22.222656 111.855469 22.320312 C 111.347656 22.414062 110.90625 22.550781 110.542969 22.683594 C 109.996094 22.882812 109.632812 23.082031 109.496094 23.183594 C 109.535156 22.679688 109.652344 22.207031 109.804688 21.792969 C 109.960938 21.382812 110.152344 21.023438 110.34375 20.710938 C 110.445312 20.699219 110.746094 20.589844 111.199219 20.464844 C 111.746094 20.308594 112.511719 20.148438 113.375 20.125 C 114.234375 20.101562 115.007812 20.21875 115.5625 20.34375 C 116.109375 20.464844 116.441406 20.574219 116.46875 20.535156 M 117.445312 23.480469 C 117.457031 24.089844 117.34375 24.746094 117.046875 25.363281 C 117.019531 25.414062 116.992188 25.464844 116.960938 25.519531 C 116.8125 25.429688 116.523438 25.289062 116.117188 25.148438 C 115.804688 25.039062 115.421875 24.933594 114.988281 24.855469 C 114.554688 24.777344 114.070312 24.726562 113.5625 24.730469 C 113.050781 24.730469 112.566406 24.777344 112.132812 24.855469 C 111.699219 24.933594 111.316406 25.039062 111.003906 25.148438 C 110.382812 25.363281 110.035156 25.574219 110.042969 25.613281 C 109.988281 25.523438 109.9375 25.433594 109.890625 25.339844 C 109.589844 24.726562 109.472656 24.070312 109.480469 23.460938 C 109.484375 23.386719 109.488281 23.316406 109.492188 23.242188 C 109.628906 23.214844 110.023438 23.058594 110.613281 22.886719 C 110.976562 22.78125 111.414062 22.671875 111.90625 22.59375 C 112.398438 22.519531 112.941406 22.464844 113.515625 22.464844 C 114.089844 22.46875 114.636719 22.515625 115.128906 22.59375 C 115.621094 22.675781 116.058594 22.78125 116.421875 22.886719 C 116.894531 23.023438 117.242188 23.152344 117.433594 23.210938 C 117.4375 23.300781 117.445312 23.390625 117.445312 23.480469 M 115.648438 26.984375 C 115.34375 27.203125 115 27.382812 114.632812 27.503906 C 114.265625 27.628906 113.871094 27.691406 113.46875 27.6875 C 112.667969 27.683594 111.90625 27.394531 111.296875 26.957031 C 110.777344 26.585938 110.347656 26.121094 110.046875 25.617188 C 110.074219 25.652344 110.449219 25.511719 111.066406 25.355469 C 111.382812 25.273438 111.757812 25.195312 112.179688 25.132812 C 112.601562 25.070312 113.070312 25.035156 113.5625 25.035156 C 114.050781 25.03125 114.519531 25.074219 114.941406 25.132812 C 115.363281 25.191406 115.738281 25.277344 116.054688 25.355469 C 116.453125 25.457031 116.75 25.550781 116.921875 25.597656 C 116.617188 26.117188 116.183594 26.605469 115.648438 26.984375 M 123.238281 17.648438 C 123.238281 17.433594 123.195312 17.222656 123.144531 17.019531 C 123.082031 16.816406 123.007812 16.621094 122.90625 16.4375 C 122.710938 16.074219 122.453125 15.75 122.164062 15.480469 C 122.019531 15.339844 121.863281 15.21875 121.707031 15.101562 C 121.542969 14.988281 121.378906 14.882812 121.207031 14.792969 C 120.855469 14.613281 120.484375 14.503906 120.117188 14.445312 C 119.378906 14.335938 118.667969 14.429688 118.042969 14.601562 C 117.441406 14.769531 116.90625 15.007812 116.441406 15.261719 C 116.445312 15.234375 116.449219 15.203125 116.449219 15.171875 C 116.453125 14.929688 116.425781 14.570312 116.269531 14.160156 C 116.25 14.109375 116.230469 14.058594 116.207031 14.003906 C 116.1875 13.949219 116.15625 13.898438 116.128906 13.84375 C 116.097656 13.792969 116.070312 13.738281 116.039062 13.683594 C 116.003906 13.632812 115.96875 13.578125 115.929688 13.523438 C 115.914062 13.496094 115.894531 13.46875 115.875 13.441406 C 115.855469 13.414062 115.832031 13.390625 115.8125 13.363281 C 115.769531 13.3125 115.722656 13.261719 115.679688 13.207031 C 115.628906 13.15625 115.578125 13.109375 115.527344 13.058594 C 115.5 13.03125 115.472656 13.007812 115.449219 12.984375 C 115.417969 12.957031 115.390625 12.9375 115.359375 12.914062 C 115.132812 12.722656 114.855469 12.566406 114.550781 12.445312 C 114.472656 12.417969 114.398438 12.382812 114.316406 12.363281 C 114.234375 12.34375 114.152344 12.324219 114.070312 12.304688 C 113.902344 12.277344 113.730469 12.25 113.554688 12.253906 C 113.203125 12.253906 112.863281 12.320312 112.554688 12.4375 C 112.25 12.554688 111.976562 12.722656 111.746094 12.90625 C 111.515625 13.09375 111.332031 13.308594 111.175781 13.519531 C 111.035156 13.738281 110.917969 13.953125 110.84375 14.160156 C 110.691406 14.574219 110.660156 14.929688 110.671875 15.171875 C 110.667969 15.214844 110.675781 15.257812 110.679688 15.296875 C 110.652344 15.277344 110.625 15.261719 110.59375 15.246094 C 110.117188 14.980469 109.566406 14.730469 108.941406 14.558594 C 108.316406 14.386719 107.605469 14.292969 106.867188 14.402344 C 106.5 14.457031 106.128906 14.570312 105.777344 14.746094 C 105.605469 14.835938 105.441406 14.941406 105.277344 15.054688 C 105.121094 15.171875 104.964844 15.292969 104.820312 15.433594 C 104.53125 15.707031 104.273438 16.027344 104.078125 16.390625 C 103.976562 16.574219 103.902344 16.769531 103.839844 16.972656 C 103.789062 17.175781 103.746094 17.386719 103.746094 17.601562 C 103.734375 17.816406 103.769531 18.03125 103.8125 18.238281 C 103.867188 18.441406 103.9375 18.640625 104.03125 18.828125 C 104.128906 19.011719 104.238281 19.1875 104.363281 19.347656 C 104.425781 19.429688 104.492188 19.503906 104.558594 19.582031 C 104.628906 19.652344 104.695312 19.726562 104.773438 19.792969 C 104.917969 19.933594 105.074219 20.054688 105.234375 20.167969 C 105.394531 20.28125 105.566406 20.382812 105.742188 20.464844 C 106.097656 20.636719 106.476562 20.726562 106.84375 20.773438 C 107.585938 20.855469 108.289062 20.742188 108.910156 20.558594 C 109.222656 20.46875 109.515625 20.355469 109.789062 20.238281 C 110.0625 20.117188 110.320312 19.988281 110.558594 19.855469 C 110.769531 19.738281 110.964844 19.617188 111.148438 19.5 C 111.113281 19.53125 111.078125 19.5625 111.039062 19.597656 C 111.011719 19.625 110.980469 19.648438 110.953125 19.679688 C 110.925781 19.707031 110.898438 19.738281 110.867188 19.769531 C 110.8125 19.832031 110.75 19.894531 110.6875 19.964844 C 110.621094 20.03125 110.5625 20.109375 110.503906 20.1875 C 110.441406 20.265625 110.375 20.347656 110.308594 20.433594 C 110.0625 20.789062 109.804688 21.210938 109.597656 21.71875 C 109.394531 22.222656 109.246094 22.8125 109.222656 23.453125 C 109.203125 24.097656 109.316406 24.796875 109.632812 25.460938 C 109.953125 26.121094 110.460938 26.726562 111.113281 27.199219 C 111.441406 27.433594 111.808594 27.632812 112.207031 27.773438 C 112.527344 27.882812 112.867188 27.957031 113.214844 27.980469 C 113.269531 28.066406 113.328125 28.152344 113.386719 28.242188 C 113.503906 28.414062 113.617188 28.578125 113.722656 28.730469 C 113.8125 28.632812 113.898438 28.539062 113.980469 28.449219 C 114.019531 28.398438 114.058594 28.351562 114.09375 28.308594 C 114.164062 28.21875 114.226562 28.140625 114.273438 28.070312 C 114.324219 27.996094 114.359375 27.9375 114.378906 27.890625 C 114.5 27.863281 114.617188 27.832031 114.734375 27.792969 C 115.132812 27.65625 115.503906 27.460938 115.832031 27.226562 C 116.160156 26.992188 116.445312 26.71875 116.695312 26.421875 C 116.941406 26.128906 117.148438 25.8125 117.308594 25.480469 C 117.617188 24.816406 117.730469 24.113281 117.707031 23.472656 C 117.679688 22.828125 117.527344 22.242188 117.324219 21.738281 C 117.121094 21.230469 116.867188 20.808594 116.621094 20.453125 C 116.554688 20.367188 116.492188 20.28125 116.429688 20.203125 C 116.367188 20.125 116.3125 20.046875 116.246094 19.980469 C 116.183594 19.910156 116.125 19.84375 116.066406 19.78125 C 116.039062 19.75 116.011719 19.71875 115.984375 19.691406 C 115.957031 19.660156 115.925781 19.636719 115.898438 19.609375 C 115.871094 19.582031 115.847656 19.558594 115.820312 19.535156 C 116.007812 19.65625 116.210938 19.78125 116.425781 19.902344 C 116.664062 20.035156 116.917969 20.164062 117.195312 20.285156 C 117.46875 20.402344 117.761719 20.511719 118.074219 20.605469 C 118.691406 20.785156 119.398438 20.902344 120.140625 20.820312 C 120.507812 20.773438 120.886719 20.683594 121.238281 20.511719 C 121.417969 20.429688 121.585938 20.328125 121.75 20.214844 C 121.910156 20.101562 122.066406 19.976562 122.210938 19.839844 C 122.285156 19.773438 122.355469 19.699219 122.425781 19.625 C 122.488281 19.550781 122.558594 19.476562 122.621094 19.394531 C 122.746094 19.234375 122.855469 19.058594 122.949219 18.871094 C 123.046875 18.6875 123.117188 18.488281 123.171875 18.285156 C 123.214844 18.078125 123.25 17.863281 123.238281 17.648438 " fill-opacity="1" fill-rule="nonzero"/></g><g clip-path="url(#fc55df732d)"><g clip-path="url(#63144d376d)"><g transform="matrix(1, 0, 0, 1, 120, 15)"><g clip-path="url(#49840ee34e)"><g clip-path="url(#5c6dbc02f7)"><g clip-path="url(#9697743511)"><path fill="#f99f2b" d="M 0.617188 0.859375 L 2.246094 0.859375 L 2.246094 4.621094 L 0.617188 4.621094 Z M 0.617188 0.859375 " fill-opacity="1" fill-rule="nonzero"/></g></g></g></g></g></g><g clip-path="url(#a6bd61af20)"><g clip-path="url(#f41dedfdbd)"><g transform="matrix(1, 0, 0, 1, 104, 15)"><g clip-path="url(#adf897e501)"><g clip-path="url(#646d38c2db)"><g clip-path="url(#4dd6fa2c54)"><path fill="#f99f2b" d="M 0.558594 0.859375 L 2.191406 0.859375 L 2.191406 4.621094 L 0.558594 4.621094 Z M 0.558594 0.859375 " fill-opacity="1" fill-rule="nonzero"/></g></g></g></g></g></g><g clip-path="url(#9d9a9522a6)"><g clip-path="url(#bda949af02)"><g transform="matrix(1, 0, 0, 1, 111, 9)"><g clip-path="url(#b3b07ddf00)"><g clip-path="url(#fd123d73b5)"><g clip-path="url(#dce36d8229)"><path fill="#f99f2b" d="M 0.03125 0.0976562 L 1.96875 0.0976562 L 1.96875 3.007812 L 0.03125 3.007812 Z M 0.03125 0.0976562 " fill-opacity="1" fill-rule="nonzero"/></g></g></g></g></g></g><g clip-path="url(#4cabaf2d55)"><g clip-path="url(#7d8dc4bd85)"><g transform="matrix(1, 0, 0, 1, 114, 9)"><g clip-path="url(#92921e42a6)"><g clip-path="url(#896ed76cb9)"><g clip-path="url(#6a494aa7e6)"><path fill="#f99f2b" d="M 0.0742188 0.0976562 L 2.011719 0.0976562 L 2.011719 3.007812 L 0.0742188 3.007812 Z M 0.0742188 0.0976562 " fill-opacity="1" fill-rule="nonzero"/></g></g></g></g></g></g><g clip-path="url(#b3fb532e29)"><g clip-path="url(#0b49e8b993)"><g transform="matrix(1, 0, 0, 1, 104, 24)"><g clip-path="url(#6e71a5641a)"><g clip-path="url(#a01c36f580)"><g clip-path="url(#3cade60ea5)"><path fill="#000000" d="M 0.128906 0.40625 L 9.632812 0.40625 L 9.632812 9.042969 L 0.128906 9.042969 Z M 0.128906 0.40625 " fill-opacity="1" fill-rule="nonzero"/></g></g></g></g></g></g><g clip-path="url(#86b8567679)"><g clip-path="url(#b7eb3d7a75)"><g transform="matrix(1, 0, 0, 1, 116, 13)"><g clip-path="url(#017fac4558)"><g clip-path="url(#66226d8c98)"><g clip-path="url(#b9dd70d36e)"><path fill="#000000" d="M 0.386719 0.539062 L 13.265625 0.539062 L 13.265625 14.984375 L 0.386719 14.984375 Z M 0.386719 0.539062 " fill-opacity="1" fill-rule="nonzero"/></g></g></g></g></g></g><g clip-path="url(#2f797eb824)"><g clip-path="url(#b80f357c9e)"><g transform="matrix(1, 0, 0, 1, 114, 30)"><g clip-path="url(#a74b78c122)"><g clip-path="url(#be213adbbf)"><g clip-path="url(#a1808f543f)"><path fill="#f99f2b" d="M 0.59375 0.539062 L 6.789062 0.539062 L 6.789062 5.902344 L 0.59375 5.902344 Z M 0.59375 0.539062 " fill-opacity="1" fill-rule="nonzero"/></g></g></g></g></g></g><g clip-path="url(#818ae40505)"><g clip-path="url(#d87e5a3a6d)"><g transform="matrix(1, 0, 0, 1, 101, 21)"><g clip-path="url(#a764ff5b4b)"><g clip-path="url(#d7765cefdb)"><g clip-path="url(#5485f756dd)"><path fill="#f99f2b" d="M 0.710938 0.222656 L 4.503906 0.222656 L 4.503906 3.503906 L 0.710938 3.503906 Z M 0.710938 0.222656 " fill-opacity="1" fill-rule="nonzero"/></g></g></g></g></g></g><g clip-path="url(#9658cc75e5)"><g clip-path="url(#cbebb94d46)"><g transform="matrix(1, 0, 0, 1, 98, 9)"><g clip-path="url(#8115ed42e8)"><g clip-path="url(#a509d93e45)"><g clip-path="url(#d72f347c55)"><path fill="#000000" d="M 0.253906 0.351562 L 9.757812 0.351562 L 9.757812 8.988281 L 0.253906 8.988281 Z M 0.253906 0.351562 " fill-opacity="1" fill-rule="nonzero"/></g></g></g></g></g></g><g clip-path="url(#82a3bd3a83)"><path fill="#1d1d1b" d="M 93.988281 25.089844 C 93.988281 25.824219 93.269531 26.496094 92.3125 26.753906 C 92.195312 26.773438 92.074219 26.792969 91.933594 26.792969 C 91.457031 26.792969 91.074219 26.613281 91.054688 26.140625 C 91.054688 25.191406 92.054688 24.476562 93.210938 23.824219 C 93.769531 24.242188 93.988281 24.675781 93.988281 25.089844 M 71.929688 20.34375 C 72.1875 20.34375 72.347656 20.542969 72.347656 20.839844 C 72.347656 21.15625 72.1875 21.550781 71.769531 21.96875 C 71.429688 22.28125 70.632812 22.796875 70.191406 22.996094 C 70.3125 22.304688 70.589844 21.589844 70.949219 21.078125 C 71.328125 20.542969 71.667969 20.34375 71.929688 20.34375 M 55.453125 25.089844 C 55.453125 25.824219 54.734375 26.496094 53.777344 26.753906 C 53.65625 26.773438 53.535156 26.792969 53.398438 26.792969 C 52.917969 26.792969 52.539062 26.613281 52.519531 26.140625 C 52.519531 25.191406 53.515625 24.476562 54.671875 23.824219 C 55.230469 24.242188 55.453125 24.675781 55.453125 25.089844 M 49.46875 22.957031 L 49.070312 22.976562 C 48.152344 22.976562 47.132812 22.640625 46.277344 21.925781 C 46.554688 21.15625 46.914062 20.660156 47.375 20.007812 C 47.414062 19.96875 47.414062 19.910156 47.414062 19.871094 C 47.414062 19.652344 47.234375 19.554688 47.074219 19.554688 C 46.972656 19.554688 46.894531 19.574219 46.835938 19.652344 C 46.496094 20.046875 46.078125 20.621094 45.738281 21.375 C 45.476562 21.015625 45.378906 20.679688 45.378906 20.386719 C 45.378906 19.613281 46.117188 19.140625 46.972656 19.140625 C 47.613281 19.140625 48.332031 19.414062 48.828125 20.046875 C 49.328125 20.660156 49.507812 21.453125 49.507812 22.324219 C 49.507812 22.519531 49.488281 22.738281 49.46875 22.957031 M 47.753906 26.851562 C 47.632812 26.890625 47.511719 26.890625 47.394531 26.890625 C 46.316406 26.890625 45.898438 25.46875 45.898438 24.0625 C 45.898438 23.390625 45.996094 22.71875 46.15625 22.222656 C 47.074219 22.9375 48.113281 23.273438 49.070312 23.273438 L 49.449219 23.253906 C 49.347656 24.0625 49.089844 26.515625 47.753906 26.851562 M 96.980469 20.859375 C 96.941406 20.859375 96.882812 20.878906 96.859375 20.9375 C 96.460938 21.886719 94.886719 22.617188 93.609375 23.292969 C 92.792969 22.699219 91.097656 22.222656 91.097656 21.351562 C 91.097656 20.9375 91.695312 20.027344 93.109375 20.027344 C 93.609375 20.027344 94.027344 20.167969 94.027344 20.582031 C 94.027344 20.761719 93.949219 20.996094 93.75 21.273438 L 93.730469 21.351562 C 93.730469 21.433594 93.808594 21.492188 93.890625 21.492188 C 93.929688 21.492188 93.96875 21.472656 93.988281 21.433594 C 94.207031 21.097656 94.289062 20.820312 94.289062 20.582031 C 94.289062 20.027344 93.808594 19.773438 93.132812 19.773438 C 92.09375 19.773438 90.558594 20.445312 90.476562 21.671875 C 90.476562 21.6875 90.480469 21.703125 90.484375 21.71875 C 89.648438 23.488281 88.554688 25.816406 87.085938 26.414062 C 86.867188 26.515625 86.667969 26.554688 86.488281 26.554688 C 85.472656 26.554688 85.09375 25.191406 85.09375 23.945312 C 85.09375 23.546875 85.132812 23.171875 85.191406 22.855469 C 85.472656 21.53125 86.03125 20.246094 86.886719 20.226562 C 87.148438 20.246094 87.347656 20.386719 87.347656 20.78125 L 87.347656 20.800781 C 87.347656 20.878906 87.425781 20.9375 87.488281 20.9375 C 87.566406 20.9375 87.644531 20.859375 87.644531 20.703125 C 87.644531 20.621094 87.644531 20.542969 87.605469 20.445312 C 87.488281 20.109375 87.167969 19.949219 86.867188 19.949219 C 85.332031 19.949219 84.234375 22.066406 84.234375 23.765625 C 84.234375 23.964844 84.25 24.164062 84.273438 24.359375 C 84.046875 24.953125 83.808594 25.421875 83.578125 25.566406 C 83.457031 25.644531 83.335938 25.683594 83.238281 25.683594 C 82.597656 25.683594 82.4375 24.339844 82.4375 23.054688 C 82.4375 21.867188 82.578125 20.742188 82.578125 20.742188 C 82.578125 20.523438 82.417969 20.34375 82.179688 20.34375 C 81.980469 20.34375 81.800781 20.464844 81.800781 20.660156 L 81.792969 20.96875 C 81 22.324219 79.152344 26.574219 77.710938 26.730469 C 76.636719 26.730469 76.515625 24.160156 76.515625 22.894531 C 76.535156 21.433594 76.753906 19.476562 77.113281 16.332031 L 77.132812 16.332031 C 78.25 15.996094 80.625 15.003906 82.300781 15.003906 C 82.980469 15.003906 83.558594 15.183594 83.855469 15.617188 C 83.898438 15.660156 83.9375 15.679688 83.996094 15.679688 C 84.117188 15.679688 84.296875 15.558594 84.296875 15.441406 L 84.277344 15.382812 C 83.917969 14.847656 83.296875 14.667969 82.539062 14.667969 C 80.824219 14.667969 78.46875 15.660156 77.152344 16.035156 C 77.332031 14.710938 77.453125 13.9375 77.511719 13.382812 C 77.511719 13.128906 77.351562 13.046875 77.074219 13.027344 C 76.914062 13.027344 76.734375 13.128906 76.675781 13.324219 C 76.515625 14.214844 76.394531 15.242188 76.277344 16.292969 C 75.417969 16.507812 74.761719 16.609375 74.300781 16.609375 C 73.644531 16.570312 73.402344 16.628906 73.402344 16.25 L 73.402344 16.09375 C 73.402344 15.996094 73.324219 15.875 73.164062 15.875 C 72.984375 15.875 72.984375 16.015625 72.964844 16.09375 L 72.964844 16.171875 C 72.964844 16.6875 73.503906 16.863281 74.179688 16.863281 C 74.839844 16.863281 75.636719 16.707031 76.234375 16.570312 C 76.136719 17.554688 76.054688 18.546875 75.957031 19.414062 C 75.921875 19.773438 75.847656 20.433594 75.796875 21.222656 L 75.160156 22.597656 C 74.542969 23.824219 73.625 25.742188 72.066406 26.414062 C 71.886719 26.476562 71.707031 26.496094 71.570312 26.496094 C 70.433594 26.496094 70.132812 25.050781 70.132812 23.90625 L 70.152344 23.3125 C 71.289062 22.894531 72.644531 21.769531 72.644531 20.839844 C 72.644531 20.34375 72.308594 20.046875 71.828125 20.046875 C 71.429688 20.046875 70.949219 20.246094 70.453125 20.722656 C 69.761719 21.421875 69.355469 22.507812 69.273438 23.558594 C 68.964844 24.230469 68.644531 24.875 68.378906 25.328125 C 67.839844 26.257812 67.441406 26.632812 67.179688 26.632812 C 66.664062 26.632812 66.582031 25.230469 66.582031 23.746094 L 66.601562 21.492188 C 66.601562 21.039062 66.582031 20.679688 66.542969 20.464844 C 66.382812 19.671875 65.984375 19.257812 65.503906 19.257812 C 65.1875 19.257812 64.847656 19.4375 64.507812 19.792969 C 63.648438 20.78125 62.773438 23.015625 62.234375 24.476562 C 62.253906 24.28125 62.273438 23.882812 62.273438 23.46875 C 62.273438 22.304688 62.113281 21.3125 61.335938 21.214844 C 60.078125 21.214844 59.082031 24.8125 58.921875 25.328125 L 58.902344 24.773438 C 58.902344 23.449219 58.980469 20.976562 59.003906 20.464844 C 59.003906 20.148438 58.824219 20.027344 58.644531 20.027344 C 58.441406 20.027344 58.242188 20.167969 58.203125 20.40625 C 58.179688 20.652344 58.15625 20.945312 58.140625 21.257812 C 57.5625 22.054688 56.203125 22.695312 55.074219 23.292969 C 54.253906 22.699219 52.558594 22.222656 52.558594 21.351562 C 52.558594 20.9375 53.15625 20.027344 54.574219 20.027344 C 55.074219 20.027344 55.492188 20.167969 55.492188 20.582031 C 55.492188 20.761719 55.410156 20.996094 55.210938 21.273438 L 55.191406 21.351562 C 55.191406 21.433594 55.273438 21.492188 55.351562 21.492188 C 55.390625 21.492188 55.433594 21.472656 55.453125 21.433594 C 55.671875 21.097656 55.75 20.820312 55.75 20.582031 C 55.75 20.027344 55.273438 19.773438 54.59375 19.773438 C 53.625 19.773438 52.21875 20.359375 51.972656 21.4375 C 51.53125 22.078125 50.917969 22.695312 49.765625 22.894531 L 49.785156 22.382812 C 49.785156 19.832031 48.3125 18.84375 46.996094 18.84375 C 45.976562 18.84375 45.058594 19.4375 45.058594 20.363281 C 45.058594 20.761719 45.21875 21.195312 45.617188 21.691406 C 45.535156 21.902344 45.464844 22.121094 45.40625 22.34375 C 44.613281 24 43.605469 25.886719 42.304688 26.414062 C 42.085938 26.515625 41.886719 26.554688 41.707031 26.554688 C 40.691406 26.554688 40.3125 25.191406 40.3125 23.945312 C 40.3125 23.546875 40.351562 23.171875 40.410156 22.855469 C 40.691406 21.53125 41.25 20.246094 42.109375 20.226562 C 42.367188 20.246094 42.566406 20.386719 42.566406 20.78125 L 42.566406 20.800781 C 42.566406 20.878906 42.644531 20.9375 42.707031 20.9375 C 42.785156 20.9375 42.867188 20.859375 42.867188 20.703125 C 42.867188 20.621094 42.867188 20.542969 42.824219 20.445312 C 42.707031 20.109375 42.386719 19.949219 42.085938 19.949219 C 40.550781 19.949219 39.453125 22.066406 39.453125 23.765625 C 39.453125 25.289062 40.230469 26.851562 41.589844 26.851562 C 41.867188 26.851562 42.148438 26.792969 42.445312 26.652344 C 43.605469 26.117188 44.515625 24.675781 45.222656 23.296875 C 45.183594 23.585938 45.160156 23.875 45.160156 24.160156 C 45.160156 25.804688 45.816406 27.265625 47.273438 27.265625 C 47.433594 27.265625 47.613281 27.246094 47.792969 27.207031 C 48.96875 26.949219 49.566406 24.933594 49.746094 23.191406 C 50.828125 22.984375 51.503906 22.4375 51.96875 21.867188 C 52.175781 22.707031 53.65625 23.261719 54.414062 23.648438 C 53.238281 24.320312 52.238281 25.070312 52.238281 26.160156 C 52.257812 26.792969 52.757812 27.070312 53.398438 27.070312 C 53.617188 27.070312 53.835938 27.027344 54.035156 26.96875 C 55.3125 26.59375 56.167969 25.824219 56.167969 24.953125 C 56.167969 24.476562 55.910156 23.964844 55.3125 23.46875 C 56.332031 22.941406 57.457031 22.398438 58.117188 21.714844 C 58.09375 22.253906 58.085938 22.839844 58.085938 23.410156 C 58.085938 24.5 58.125 25.527344 58.203125 26.058594 C 58.242188 26.355469 58.441406 26.515625 58.644531 26.515625 C 58.921875 26.515625 58.980469 26.160156 59.0625 25.882812 C 59.203125 25.347656 60.21875 21.808594 61.035156 21.730469 C 61.4375 21.730469 61.535156 22.539062 61.535156 23.429688 C 61.535156 24.359375 61.4375 25.269531 61.414062 25.566406 C 61.414062 25.765625 61.617188 25.902344 61.796875 25.902344 C 61.933594 25.902344 62.054688 25.84375 62.09375 25.683594 C 62.574219 24.597656 63.550781 21.136719 64.726562 19.96875 C 64.828125 19.871094 64.96875 19.710938 65.148438 19.710938 C 65.285156 19.710938 65.425781 19.792969 65.585938 20.089844 C 65.765625 20.484375 65.804688 21.175781 65.804688 21.945312 L 65.785156 23.648438 C 65.785156 25.289062 65.945312 26.851562 67.082031 26.929688 C 67.75 26.929688 68.570312 25.648438 69.265625 24.269531 C 69.347656 25.664062 70.007812 26.851562 71.308594 26.851562 C 71.589844 26.851562 71.886719 26.792969 72.207031 26.671875 C 73.820312 26.101562 75.007812 23.652344 75.757812 21.964844 C 75.746094 22.269531 75.738281 22.582031 75.738281 22.894531 C 75.738281 24.972656 76.054688 27.148438 77.453125 27.148438 C 78.980469 27.148438 80.851562 23.34375 81.78125 21.613281 C 81.789062 23.195312 81.980469 26.039062 83.097656 26.039062 C 83.257812 26.039062 83.4375 25.980469 83.636719 25.863281 C 83.898438 25.699219 84.140625 25.316406 84.363281 24.820312 C 84.632812 25.933594 85.332031 26.851562 86.371094 26.851562 C 86.648438 26.851562 86.925781 26.792969 87.226562 26.652344 C 88.738281 25.953125 89.832031 23.710938 90.589844 22.082031 C 90.96875 22.800781 92.257812 23.296875 92.953125 23.648438 C 91.773438 24.320312 90.777344 25.070312 90.777344 26.160156 C 90.796875 26.792969 91.296875 27.070312 91.933594 27.070312 C 92.152344 27.070312 92.371094 27.027344 92.574219 26.96875 C 93.847656 26.59375 94.707031 25.824219 94.707031 24.953125 C 94.707031 24.476562 94.449219 23.964844 93.847656 23.46875 C 95.1875 22.777344 96.703125 22.066406 97.121094 21.039062 L 97.140625 20.996094 C 97.140625 20.917969 97.0625 20.859375 96.980469 20.859375 " fill-opacity="1" fill-rule="nonzero"/></g><g clip-path="url(#0bfa062a7d)"><path fill="#f69f15" d="M 14.351562 22.566406 C 14.351562 20.308594 12.882812 18.847656 10.9375 18.847656 C 9.007812 18.847656 7.539062 20.308594 7.539062 22.566406 C 7.539062 24.824219 9.007812 26.304688 10.9375 26.304688 C 12.882812 26.304688 14.351562 24.824219 14.351562 22.566406 M 16.203125 22.566406 C 16.203125 25.804688 14.046875 27.984375 11.089844 27.984375 C 9.601562 27.984375 8.304688 27.386719 7.480469 26.1875 L 7.480469 27.863281 L 5.726562 27.863281 L 5.726562 13.027344 L 7.558594 13.027344 L 7.558594 18.867188 C 8.398438 17.726562 9.65625 17.167969 11.089844 17.167969 C 14.046875 17.167969 16.203125 19.328125 16.203125 22.566406 " fill-opacity="1" fill-rule="nonzero"/></g><g clip-path="url(#a0fcd7ca23)"><path fill="#f69f15" d="M 18.945312 21.617188 L 25.675781 21.617188 C 25.476562 19.898438 24.152344 18.683594 22.308594 18.683594 C 20.488281 18.683594 19.144531 19.878906 18.945312 21.617188 M 27.457031 22.949219 L 18.945312 22.949219 C 19.183594 24.742188 20.667969 25.941406 22.746094 25.941406 C 23.972656 25.941406 25 25.535156 25.773438 24.703125 L 26.820312 25.902344 C 25.871094 26.980469 24.425781 27.5625 22.6875 27.5625 C 19.300781 27.5625 17.046875 25.378906 17.046875 22.332031 C 17.046875 19.300781 19.28125 17.121094 22.308594 17.121094 C 25.339844 17.121094 27.496094 19.242188 27.496094 22.386719 C 27.496094 22.542969 27.476562 22.773438 27.457031 22.949219 " fill-opacity="1" fill-rule="nonzero"/></g><g clip-path="url(#f56284c40e)"><path fill="#f69f15" d="M 29.882812 21.617188 L 36.609375 21.617188 C 36.410156 19.898438 35.085938 18.683594 33.246094 18.683594 C 31.425781 18.683594 30.078125 19.878906 29.882812 21.617188 M 38.390625 22.949219 L 29.882812 22.949219 C 30.117188 24.742188 31.601562 25.941406 33.679688 25.941406 C 34.90625 25.941406 35.9375 25.535156 36.707031 24.703125 L 37.757812 25.902344 C 36.808594 26.980469 35.363281 27.5625 33.621094 27.5625 C 30.238281 27.5625 27.980469 25.378906 27.980469 22.332031 C 27.980469 19.300781 30.21875 17.121094 33.246094 17.121094 C 36.273438 17.121094 38.429688 19.242188 38.429688 22.386719 C 38.429688 22.542969 38.410156 22.773438 38.390625 22.949219 " fill-opacity="1" fill-rule="nonzero"/></g><g clip-path="url(#c832f97e40)"><path fill="#1d1d1b" d="M 81.699219 19.035156 C 81.699219 19.230469 81.875 19.410156 82.070312 19.410156 C 82.265625 19.410156 82.421875 19.230469 82.421875 19.035156 C 82.421875 18.839844 82.265625 18.683594 82.070312 18.683594 C 81.875 18.683594 81.699219 18.839844 81.699219 19.035156 " fill-opacity="1" fill-rule="nonzero"/></g></svg>